# xmcd
#
# Track frame offsets: 
#        150
#        15004
#        31697
#        47250
#        59844
#        69801
#        85576
#        100645
#        116022
#        136879
#        151886
#        165876
#        178907
#        192075
#        209181
#        224260
#        240694
#        257471
#        274169
#        297479
#        312256
#
# Disc length: 4346 seconds
#
# Revision: 1
# Processed by: cddbd v1.5.2PL0 Copyright (c) Steve Scherf et al.
# Submitted via: ExactAudioCopyFreeDBPlugin 1.0
#
DISCID=1910f815
DTITLE=Lustīgais Blumīzers - Tā lūk man iet...
DYEAR=2006
DGENRE=Latvian
TTITLE0=Laimīgs esmu es
TTITLE1=Bet, ja zvaigzne krīt
TTITLE2=Rotaļlietiņa
TTITLE3=Bij' man kumeliņš
TTITLE4=Gunāra laiva
TTITLE5=Lido vien tālāk
TTITLE6=Kāpēc Tu klusē
TTITLE7=Mātei meita
TTITLE8=Tā lūk man iet
TTITLE9=Mēness asaras
TTITLE10=Gribi Tu vai nē
TTITLE11=Nāc sirdī (dance version)
TTITLE12=Nakts ir mana
TTITLE13=Sajusts, iemīlēts un svešs
TTITLE14=Sēdēsim katrs pie sava galda
TTITLE15=Sauja
TTITLE16=Tevi te gaida kāds
TTITLE17=Tu no manis
TTITLE18=Ļauj, lai diena lēnām iet
TTITLE19=Aizvērtās durvis
TTITLE20=Atver savu sirdi ("Lutriņu ziņģes" himna)
EXTD=
EXTT0=
EXTT1=
EXTT2=
EXTT3=
EXTT4=
EXTT5=
EXTT6=
EXTT7=
EXTT8=
EXTT9=
EXTT10=
EXTT11=
EXTT12=
EXTT13=
EXTT14=
EXTT15=
EXTT16=
EXTT17=
EXTT18=
EXTT19=
EXTT20=
PLAYORDER=
